<svg id="svg" version="1.1" xmlns="http://www.w3.org/2000/svg" xmlns:xlink="http://www.w3.org/1999/xlink" width="400" height="400" viewBox="0, 0, 400,400"><g id="svgg"><path id="path0" d="M229.000 0.392 C 227.900 0.578,225.439 0.746,223.531 0.765 C 221.622 0.784,219.192 0.969,218.131 1.176 C 217.069 1.382,214.940 1.753,213.400 2.000 C 201.296 3.938,194.226 5.889,183.000 10.388 C 173.018 14.390,163.107 19.861,155.600 25.514 C 154.610 26.260,153.269 27.259,152.620 27.735 C 146.961 31.884,134.926 43.197,131.400 47.682 C 130.520 48.802,129.611 49.916,129.380 50.159 C 127.705 51.917,118.400 65.128,118.400 65.747 C 118.400 65.841,117.713 67.062,116.873 68.459 C 111.007 78.223,104.360 95.862,102.048 107.800 C 98.227 127.532,98.586 145.661,103.208 166.400 C 105.490 176.634,110.739 190.383,111.808 188.922 C 112.808 187.553,126.047 187.977,134.600 189.651 C 144.376 191.565,148.405 192.876,157.600 197.133 C 159.584 198.051,169.059 203.813,170.366 204.895 C 170.966 205.393,172.067 206.250,172.812 206.800 C 183.314 214.550,195.045 230.062,199.661 242.300 C 199.847 242.795,200.168 243.605,200.374 244.100 C 201.562 246.962,203.641 254.067,204.323 257.600 C 204.557 258.810,204.940 260.759,205.174 261.931 C 205.860 265.359,205.768 266.105,204.700 265.777 C 204.205 265.625,203.933 265.641,204.096 265.813 C 204.400 266.134,204.952 266.242,211.800 267.321 C 220.843 268.746,223.008 268.923,232.042 268.976 C 242.122 269.035,241.933 269.002,244.531 271.191 C 245.009 271.594,250.080 275.638,255.800 280.177 C 261.520 284.716,266.470 288.651,266.800 288.921 C 267.130 289.190,268.120 289.974,269.000 290.663 C 269.880 291.351,274.830 295.272,280.000 299.375 C 291.216 308.277,290.321 307.565,291.843 308.800 C 292.521 309.350,293.772 310.340,294.623 311.000 C 295.475 311.660,300.184 315.395,305.088 319.300 C 309.992 323.205,314.068 326.400,314.146 326.400 C 314.307 326.400,314.987 314.605,315.598 301.200 C 315.824 296.250,316.186 288.375,316.401 283.700 C 316.617 279.025,316.976 271.195,317.199 266.300 C 317.422 261.405,317.786 254.160,318.009 250.200 C 318.232 246.240,318.411 242.161,318.407 241.135 L 318.400 239.271 323.938 234.242 C 336.815 222.550,347.016 209.019,354.279 194.000 C 357.090 188.186,357.693 186.849,358.604 184.400 C 358.973 183.410,359.429 182.240,359.618 181.800 C 360.460 179.840,363.191 171.072,363.978 167.800 C 365.973 159.506,366.377 157.167,367.601 146.836 C 368.973 135.264,366.897 111.352,363.605 100.800 C 363.433 100.250,363.064 98.990,362.785 98.000 C 350.319 53.838,313.807 17.077,271.000 5.591 C 267.198 4.571,265.142 4.066,263.000 3.627 C 261.680 3.356,259.880 2.983,259.000 2.798 C 258.120 2.613,256.050 2.255,254.400 2.003 C 252.750 1.751,250.950 1.457,250.400 1.350 C 249.280 1.133,241.091 0.548,235.000 0.250 C 232.800 0.142,230.100 0.206,229.000 0.392 M174.755 108.958 C 190.205 114.185,195.444 133.609,184.487 145.040 C 172.689 157.351,153.325 153.473,147.134 137.560 C 146.091 134.877,145.838 125.937,146.740 123.600 C 149.594 116.207,154.017 111.611,160.600 109.200 C 163.244 108.231,164.187 108.081,167.862 108.043 C 171.169 108.008,172.449 108.178,174.755 108.958 M240.016 108.836 C 258.092 114.771,261.746 137.910,246.258 148.361 C 226.186 161.906,201.884 137.900,215.320 117.800 C 218.525 113.005,221.732 110.750,228.600 108.463 C 230.857 107.711,237.222 107.919,240.016 108.836 M304.772 108.455 C 311.948 110.744,316.118 114.109,319.104 120.025 C 329.408 140.437,306.036 161.210,287.078 148.490 C 276.467 141.371,274.103 126.717,281.913 116.478 C 286.963 109.857,297.533 106.148,304.772 108.455 " stroke="none" fill="#8434fb" fill-rule="evenodd"></path><path id="path1" d="M106.200 189.259 C 101.508 190.113,98.156 190.882,94.200 192.012 C 93.540 192.201,92.370 192.524,91.600 192.730 C 67.812 199.103,44.650 222.184,35.936 248.200 C 34.696 251.901,33.447 257.144,32.418 262.967 C 31.879 266.019,31.875 282.938,32.413 286.367 C 33.648 294.244,34.262 296.922,36.225 303.000 C 38.601 310.354,43.558 320.242,47.547 325.588 C 62.191 345.209,80.384 356.670,104.000 361.153 C 106.804 361.685,111.087 362.041,118.419 362.353 L 124.238 362.600 130.419 367.506 C 136.624 372.430,149.408 382.560,162.595 393.000 C 171.488 400.041,170.666 400.010,170.953 393.321 C 171.084 390.285,171.370 384.020,171.589 379.400 C 171.808 374.780,172.178 366.770,172.410 361.600 C 172.642 356.430,172.934 350.154,173.059 347.654 L 173.285 343.109 177.102 339.454 C 187.902 329.114,193.663 320.709,199.619 306.600 C 203.702 296.929,206.116 281.641,205.169 271.453 C 204.590 265.219,205.135 266.119,201.343 265.149 C 194.658 263.439,192.425 262.733,184.900 259.949 C 181.292 258.615,168.044 252.046,165.522 250.340 C 164.269 249.493,163.130 248.800,162.990 248.800 C 162.850 248.800,161.085 247.677,159.068 246.304 C 139.578 233.039,123.540 214.540,113.289 193.501 L 111.000 188.802 109.600 188.848 C 108.830 188.874,107.300 189.058,106.200 189.259 M81.827 259.236 C 91.082 263.501,93.330 275.491,86.211 282.611 C 76.964 291.857,60.796 284.566,61.672 271.544 C 62.330 261.770,73.080 255.206,81.827 259.236 M124.562 259.400 C 125.855 259.991,127.764 261.326,128.804 262.366 C 130.540 264.102,131.032 264.902,132.344 268.119 C 136.687 278.771,123.246 290.745,112.688 285.627 C 95.566 277.328,107.264 251.488,124.562 259.400 M166.873 259.327 C 172.239 261.700,175.333 266.494,175.333 272.435 C 175.333 289.900,150.251 292.080,146.974 274.900 C 144.845 263.733,156.396 254.693,166.873 259.327 " stroke="none" fill="#fb4c8c" fill-rule="evenodd"></path><path id="path2" d="M113.205 188.329 C 111.177 188.723,111.267 189.229,114.508 195.616 C 118.642 203.766,122.970 210.509,129.000 218.195 C 147.048 241.200,173.266 258.087,202.000 265.213 C 206.096 266.229,206.044 266.283,205.174 261.931 C 204.940 260.759,204.557 258.810,204.323 257.600 C 203.619 253.954,201.506 246.776,200.320 244.000 C 200.085 243.450,199.764 242.640,199.607 242.200 C 195.489 230.676,183.243 214.498,172.812 206.800 C 172.067 206.250,170.966 205.393,170.366 204.895 C 169.059 203.813,159.584 198.051,157.600 197.133 C 148.714 193.019,144.804 191.721,135.400 189.763 C 129.541 188.543,116.454 187.697,113.205 188.329 " stroke="none" fill="#1614ac" fill-rule="evenodd"></path><path id="path3" d="M0.000 200.000 L 0.000 400.000 200.000 400.000 L 400.000 400.000 400.000 200.000 L 400.000 0.000 321.700 0.049 C 277.912 0.077,244.546 0.246,246.000 0.432 C 251.124 1.088,255.031 1.660,256.900 2.027 C 267.268 4.063,269.996 4.761,277.400 7.275 C 312.656 19.248,340.946 45.300,357.023 80.600 C 360.034 87.212,364.395 101.039,365.601 107.800 C 366.393 112.240,367.168 117.201,367.633 120.800 C 368.277 125.792,368.301 146.405,367.668 150.400 C 367.406 152.050,367.000 154.660,366.765 156.200 C 366.316 159.150,366.163 159.910,364.793 166.000 C 363.863 170.138,363.836 170.232,361.819 176.444 C 360.638 180.084,359.248 183.926,358.002 187.000 C 355.610 192.901,348.986 204.978,344.618 211.402 C 339.179 219.400,329.282 230.330,321.075 237.400 L 318.753 239.400 318.377 248.400 C 318.169 253.350,317.820 261.270,317.600 266.000 C 317.379 270.730,317.017 278.560,316.795 283.400 C 316.573 288.240,316.211 296.070,315.991 300.800 C 315.771 305.530,315.433 313.151,315.240 317.735 C 315.038 322.530,314.711 326.249,314.469 326.491 C 314.177 326.783,311.595 324.958,305.925 320.449 C 301.456 316.895,292.643 309.896,286.340 304.894 C 280.037 299.892,271.142 292.830,266.573 289.200 C 253.021 278.432,245.934 272.829,243.638 271.068 L 241.476 269.410 234.718 269.542 C 231.001 269.615,226.034 269.473,223.680 269.226 C 217.507 268.580,212.864 267.986,210.800 267.579 C 206.919 266.814,205.074 266.673,205.377 267.163 C 206.291 268.641,205.491 286.610,204.254 292.400 C 200.418 310.350,192.684 324.539,179.580 337.664 L 173.725 343.527 173.448 349.464 C 173.296 352.729,172.998 359.090,172.786 363.600 C 172.574 368.110,172.229 375.580,172.020 380.200 C 171.229 397.646,171.088 399.600,170.621 399.600 C 170.371 399.600,166.843 396.970,162.783 393.756 C 158.722 390.541,153.870 386.702,152.000 385.224 C 150.130 383.746,146.359 380.751,143.619 378.568 C 140.879 376.386,138.147 374.240,137.546 373.800 C 136.946 373.360,133.604 370.734,130.119 367.965 L 123.783 362.930 116.391 362.653 C 98.108 361.967,83.448 357.254,69.170 347.474 C 65.898 345.232,56.244 337.087,54.993 335.512 C 54.769 335.230,53.264 333.470,51.649 331.600 C 46.327 325.440,40.779 316.200,37.598 308.200 C 35.081 301.869,34.029 298.117,32.411 289.695 C 24.567 248.873,52.079 203.629,91.697 192.201 C 98.790 190.155,101.036 189.660,108.100 188.591 C 109.934 188.313,109.981 187.873,108.552 184.369 C 105.450 176.762,102.399 165.987,101.199 158.400 C 100.938 156.750,100.573 154.500,100.389 153.400 C 99.111 145.782,98.858 125.479,99.948 118.000 C 101.943 104.314,105.452 91.468,109.892 81.600 C 116.974 65.862,124.007 55.154,136.000 41.854 C 150.262 26.037,175.328 11.042,197.800 4.882 C 204.099 3.156,213.007 1.482,221.400 0.447 C 223.024 0.247,177.120 0.081,112.100 0.051 L 0.000 0.000 0.000 200.000 M164.800 108.580 C 152.259 110.635,143.297 123.913,146.851 135.172 C 152.172 152.027,170.608 157.562,182.926 146.003 C 196.046 133.690,189.176 111.003,171.600 108.603 C 170.610 108.468,169.350 108.297,168.800 108.223 C 168.250 108.149,166.450 108.310,164.800 108.580 M230.400 108.592 C 210.930 111.950,205.255 136.748,221.367 148.063 C 225.994 151.312,233.545 152.955,237.840 151.647 C 238.478 151.452,239.810 151.058,240.800 150.770 C 261.815 144.655,259.143 111.544,237.400 108.637 C 236.300 108.490,234.950 108.303,234.400 108.222 C 233.850 108.141,232.050 108.307,230.400 108.592 M297.000 108.441 C 277.397 111.173,270.682 134.911,286.023 147.250 C 297.988 156.873,314.610 151.636,320.462 136.400 C 321.348 134.093,321.107 125.512,320.083 122.884 C 317.025 115.043,310.267 109.456,302.800 108.596 C 301.590 108.456,300.330 108.289,300.000 108.224 C 299.670 108.160,298.320 108.257,297.000 108.441 M70.600 259.750 C 58.777 265.329,59.476 281.168,71.742 285.652 C 78.970 288.294,87.474 283.642,89.439 275.969 C 92.329 264.688,80.931 254.875,70.600 259.750 M114.778 258.960 C 108.199 261.478,104.790 266.044,104.809 272.311 C 104.862 289.332,128.731 291.579,132.260 274.895 C 134.289 265.302,123.619 255.576,114.778 258.960 M156.078 259.510 C 151.794 261.361,149.579 263.729,147.651 268.519 C 147.075 269.948,147.069 274.274,147.640 276.040 C 152.175 290.071,170.933 289.701,174.657 275.508 C 177.396 265.067,165.974 255.232,156.078 259.510 " stroke="none" fill="#fbfbfb" fill-rule="evenodd"></path><path id="path4" d="M222.400 0.400 C 220.870 0.638,221.080 0.684,223.800 0.705 C 225.560 0.719,227.900 0.590,229.000 0.418 C 230.797 0.138,230.655 0.108,227.600 0.114 C 225.730 0.117,223.390 0.246,222.400 0.400 M238.600 0.418 C 239.700 0.590,242.040 0.722,243.800 0.712 C 246.804 0.694,246.877 0.674,245.000 0.382 C 243.900 0.210,241.560 0.078,239.800 0.088 C 236.796 0.106,236.723 0.126,238.600 0.418 M216.000 1.200 C 215.028 1.511,215.033 1.520,216.200 1.520 C 216.860 1.520,217.850 1.376,218.400 1.200 C 219.372 0.889,219.367 0.880,218.200 0.880 C 217.540 0.880,216.550 1.024,216.000 1.200 M249.200 1.200 C 249.750 1.376,250.830 1.517,251.600 1.513 L 253.000 1.505 251.800 1.200 C 250.039 0.752,247.801 0.752,249.200 1.200 M211.000 2.000 C 209.906 2.470,211.733 2.470,213.200 2.000 C 214.175 1.688,214.170 1.679,213.000 1.668 C 212.340 1.662,211.440 1.811,211.000 2.000 M254.400 2.000 C 255.867 2.470,257.694 2.470,256.600 2.000 C 256.160 1.811,255.260 1.662,254.600 1.668 C 253.430 1.679,253.425 1.688,254.400 2.000 M206.600 2.800 C 205.506 3.270,207.333 3.270,208.800 2.800 C 209.775 2.488,209.770 2.479,208.600 2.468 C 207.940 2.462,207.040 2.611,206.600 2.800 M259.000 2.800 C 259.440 2.989,260.250 3.144,260.800 3.144 C 261.712 3.144,261.729 3.113,261.000 2.800 C 260.560 2.611,259.750 2.456,259.200 2.456 C 258.288 2.456,258.271 2.487,259.000 2.800 M203.000 3.600 L 202.200 3.944 203.000 3.944 C 203.440 3.944,204.160 3.789,204.600 3.600 L 205.400 3.256 204.600 3.256 C 204.160 3.256,203.440 3.411,203.000 3.600 M263.000 3.600 C 263.440 3.789,264.160 3.944,264.600 3.944 L 265.400 3.944 264.600 3.600 C 264.160 3.411,263.440 3.256,263.000 3.256 L 262.200 3.256 263.000 3.600 M199.400 4.400 L 198.600 4.744 199.400 4.744 C 199.840 4.744,200.560 4.589,201.000 4.400 L 201.800 4.056 201.000 4.056 C 200.560 4.056,199.840 4.211,199.400 4.400 M266.600 4.400 C 267.040 4.589,267.760 4.744,268.200 4.744 L 269.000 4.744 268.200 4.400 C 267.760 4.211,267.040 4.056,266.600 4.056 L 265.800 4.056 266.600 4.400 M196.600 5.200 L 195.800 5.544 196.600 5.566 C 197.040 5.578,197.670 5.413,198.000 5.200 C 198.795 4.686,197.796 4.686,196.600 5.200 M269.600 5.200 C 269.930 5.413,270.560 5.578,271.000 5.566 L 271.800 5.544 271.000 5.200 C 269.804 4.686,268.805 4.686,269.600 5.200 M193.800 6.000 C 193.296 6.217,193.222 6.344,193.600 6.344 C 193.930 6.344,194.560 6.189,195.000 6.000 C 195.504 5.783,195.578 5.656,195.200 5.656 C 194.870 5.656,194.240 5.811,193.800 6.000 M272.000 5.754 C 272.000 6.006,276.073 7.260,276.266 7.068 C 276.363 6.970,275.592 6.600,274.550 6.245 C 272.642 5.595,272.000 5.471,272.000 5.754 M189.200 7.600 C 188.667 7.945,188.667 7.988,189.200 7.988 C 189.530 7.988,190.070 7.813,190.400 7.600 C 190.933 7.255,190.933 7.212,190.400 7.212 C 190.070 7.212,189.530 7.387,189.200 7.600 M277.200 7.600 C 277.530 7.813,278.070 7.988,278.400 7.988 C 278.933 7.988,278.933 7.945,278.400 7.600 C 278.070 7.387,277.530 7.212,277.200 7.212 C 276.667 7.212,276.667 7.255,277.200 7.600 M184.200 9.414 C 182.440 10.152,180.476 10.947,179.835 11.180 C 179.194 11.413,178.757 11.691,178.864 11.797 C 179.037 11.970,187.957 8.557,188.367 8.161 C 188.869 7.676,187.014 8.233,184.200 9.414 M279.233 8.165 C 279.405 8.334,287.333 11.543,288.400 11.874 C 289.997 12.370,287.084 10.936,283.688 9.554 C 280.263 8.161,278.752 7.690,279.233 8.165 M176.453 12.653 C 175.713 12.976,175.190 13.324,175.292 13.425 C 175.504 13.637,178.400 12.490,178.400 12.195 C 178.400 11.898,177.929 12.009,176.453 12.653 M289.265 12.198 C 289.449 12.382,297.312 16.377,298.200 16.738 C 299.880 17.420,297.073 15.708,293.773 14.038 C 290.186 12.222,288.671 11.604,289.265 12.198 M173.600 14.020 C 173.270 14.226,170.840 15.585,168.200 17.041 C 157.967 22.684,142.627 34.504,136.000 41.854 C 129.486 49.078,124.146 55.947,120.338 62.000 C 117.075 67.188,118.114 66.076,122.020 60.200 C 124.626 56.280,128.220 51.376,129.380 50.159 C 129.611 49.916,130.520 48.802,131.400 47.682 C 134.926 43.197,146.961 31.884,152.620 27.735 C 153.269 27.259,154.610 26.260,155.600 25.514 C 160.130 22.102,166.703 18.061,172.300 15.246 C 173.675 14.554,174.800 13.901,174.800 13.794 C 174.800 13.502,174.273 13.601,173.600 14.020 M298.800 16.954 C 298.800 17.047,299.803 17.690,301.030 18.382 C 315.293 26.432,331.695 41.144,341.622 54.793 C 343.929 57.964,344.715 58.597,342.749 55.700 C 337.599 48.112,326.796 36.805,317.902 29.693 C 311.130 24.279,298.800 16.055,298.800 16.954 M344.985 59.500 C 345.602 60.435,346.183 61.200,346.276 61.200 C 346.564 61.200,345.033 58.766,344.432 58.269 C 344.120 58.011,344.368 58.565,344.985 59.500 M347.238 63.100 C 347.734 63.925,348.442 65.050,348.809 65.600 C 349.177 66.150,350.156 67.824,350.985 69.321 C 351.814 70.817,352.569 71.965,352.663 71.871 C 352.854 71.680,350.734 67.901,348.304 64.100 C 346.584 61.409,345.748 60.625,347.238 63.100 M117.422 66.622 C 117.045 67.198,116.816 67.749,116.914 67.847 C 117.012 67.945,117.400 67.554,117.778 66.978 C 118.155 66.402,118.384 65.851,118.286 65.753 C 118.188 65.655,117.800 66.046,117.422 66.622 M115.800 69.600 C 115.459 70.260,115.269 70.800,115.379 70.800 C 115.489 70.800,115.859 70.260,116.200 69.600 C 116.541 68.940,116.731 68.400,116.621 68.400 C 116.511 68.400,116.141 68.940,115.800 69.600 M113.400 74.000 C 112.602 75.585,112.028 76.962,112.126 77.059 C 112.223 77.157,112.952 75.936,113.745 74.345 C 114.539 72.755,115.112 71.379,115.020 71.286 C 114.927 71.194,114.198 72.415,113.400 74.000 M355.218 77.251 C 355.180 77.780,356.457 80.476,356.652 80.281 C 356.765 80.168,356.493 79.384,356.047 78.538 C 355.600 77.692,355.227 77.113,355.218 77.251 M111.023 79.006 C 110.160 81.072,110.274 81.306,111.247 79.462 C 111.693 78.616,111.965 77.832,111.852 77.719 C 111.739 77.606,111.366 78.185,111.023 79.006 M356.980 81.400 C 358.253 84.819,358.946 86.388,359.111 86.222 C 359.350 85.983,357.625 81.551,357.079 81.000 C 356.816 80.735,356.783 80.870,356.980 81.400 M109.654 82.045 C 109.452 82.570,108.795 84.223,108.194 85.717 C 107.593 87.212,107.182 88.515,107.281 88.614 C 107.380 88.714,108.119 87.142,108.923 85.123 C 109.727 83.104,110.303 81.370,110.204 81.270 C 110.104 81.171,109.857 81.519,109.654 82.045 M360.012 89.200 C 360.012 89.530,360.187 90.070,360.400 90.400 C 360.745 90.933,360.788 90.933,360.788 90.400 C 360.788 90.070,360.613 89.530,360.400 89.200 C 360.055 88.667,360.012 88.667,360.012 89.200 M106.600 90.000 C 106.450 90.473,106.417 90.950,106.527 91.060 C 106.637 91.170,106.850 90.873,107.000 90.400 C 107.150 89.927,107.183 89.450,107.073 89.340 C 106.963 89.230,106.750 89.527,106.600 90.000 M360.812 91.600 C 360.812 91.930,360.987 92.470,361.200 92.800 C 361.545 93.333,361.588 93.333,361.588 92.800 C 361.588 92.470,361.413 91.930,361.200 91.600 C 360.855 91.067,360.812 91.067,360.812 91.600 M105.400 93.600 C 105.025 94.729,104.804 95.737,104.908 95.841 C 105.012 95.946,105.401 95.104,105.771 93.971 C 106.142 92.839,106.363 91.830,106.263 91.730 C 106.163 91.630,105.775 92.471,105.400 93.600 M361.612 94.000 C 361.612 94.330,361.787 94.870,362.000 95.200 C 362.345 95.733,362.388 95.733,362.388 95.200 C 362.388 94.870,362.213 94.330,362.000 94.000 C 361.655 93.467,361.612 93.467,361.612 94.000 M362.434 96.600 C 362.422 97.040,362.587 97.670,362.800 98.000 C 363.314 98.795,363.314 97.796,362.800 96.600 L 362.456 95.800 362.434 96.600 M104.229 97.429 C 104.081 98.015,104.051 98.584,104.161 98.694 C 104.271 98.804,104.481 98.415,104.629 97.829 C 104.776 97.242,104.806 96.673,104.696 96.563 C 104.586 96.453,104.376 96.842,104.229 97.429 M363.234 99.400 C 363.222 99.840,363.387 100.470,363.600 100.800 C 364.114 101.595,364.114 100.596,363.600 99.400 L 363.256 98.600 363.234 99.400 M103.429 100.229 C 103.281 100.815,103.251 101.384,103.361 101.494 C 103.471 101.604,103.681 101.215,103.829 100.629 C 103.976 100.042,104.006 99.473,103.896 99.363 C 103.786 99.253,103.576 99.642,103.429 100.229 M364.056 102.600 C 364.056 103.040,364.211 103.760,364.400 104.200 L 364.744 105.000 364.744 104.200 C 364.744 103.760,364.589 103.040,364.400 102.600 L 364.056 101.800 364.056 102.600 M102.688 102.933 C 102.210 104.149,102.324 105.173,102.839 104.287 C 103.067 103.896,103.191 103.266,103.115 102.887 C 102.988 102.260,102.951 102.264,102.688 102.933 M364.868 105.800 C 364.874 106.240,365.024 107.050,365.200 107.600 L 365.520 108.600 365.532 107.600 C 365.538 107.050,365.389 106.240,365.200 105.800 L 364.856 105.000 364.868 105.800 M101.778 106.978 C 101.627 107.781,101.594 108.527,101.704 108.637 C 101.814 108.747,102.027 108.181,102.178 107.378 C 102.328 106.575,102.362 105.828,102.252 105.718 C 102.142 105.608,101.928 106.175,101.778 106.978 M163.200 108.424 C 162.776 108.714,163.304 108.757,165.000 108.568 C 166.320 108.420,167.475 108.232,167.567 108.150 C 167.968 107.789,163.739 108.054,163.200 108.424 M168.833 108.150 C 168.925 108.232,170.080 108.409,171.400 108.543 C 172.984 108.704,173.528 108.662,173.000 108.421 C 172.244 108.076,168.479 107.831,168.833 108.150 M229.000 108.421 C 228.472 108.662,229.016 108.704,230.600 108.543 C 231.920 108.409,233.075 108.232,233.167 108.150 C 233.521 107.831,229.756 108.076,229.000 108.421 M234.433 108.150 C 234.525 108.232,235.680 108.409,237.000 108.543 C 238.584 108.704,239.128 108.662,238.600 108.421 C 237.844 108.076,234.079 107.831,234.433 108.150 M294.600 108.416 C 294.084 108.648,294.724 108.691,296.400 108.535 C 297.830 108.402,299.075 108.228,299.167 108.147 C 299.525 107.831,295.353 108.077,294.600 108.416 M300.033 108.150 C 300.125 108.232,301.280 108.420,302.600 108.568 C 304.296 108.757,304.824 108.714,304.400 108.424 C 303.861 108.054,299.632 107.789,300.033 108.150 M174.400 109.200 C 174.730 109.413,175.270 109.588,175.600 109.588 C 176.133 109.588,176.133 109.545,175.600 109.200 C 175.270 108.987,174.730 108.812,174.400 108.812 C 173.867 108.812,173.867 108.855,174.400 109.200 M292.000 109.200 C 291.467 109.545,291.467 109.588,292.000 109.588 C 292.330 109.588,292.870 109.413,293.200 109.200 C 293.733 108.855,293.733 108.812,293.200 108.812 C 292.870 108.812,292.330 108.987,292.000 109.200 M365.680 110.000 C 365.680 110.550,365.824 111.450,366.000 112.000 L 366.320 113.000 366.320 112.000 C 366.320 111.450,366.176 110.550,366.000 110.000 L 365.680 109.000 365.680 110.000 M101.089 110.400 C 100.936 110.950,100.825 111.850,100.842 112.400 C 100.868 113.261,100.926 113.214,101.258 112.060 C 101.470 111.324,101.581 110.424,101.506 110.060 C 101.408 109.594,101.286 109.693,101.089 110.400 M176.400 109.781 C 176.400 109.881,177.165 110.304,178.100 110.721 C 181.844 112.393,184.878 115.520,187.682 120.600 C 189.224 123.395,189.081 122.446,187.509 119.456 C 185.382 115.409,176.400 107.587,176.400 109.781 M289.000 110.472 C 287.107 111.461,284.568 113.375,283.274 114.789 C 281.886 116.304,279.897 119.230,280.110 119.443 C 280.213 119.546,280.879 118.723,281.591 117.614 C 283.233 115.056,286.034 112.532,289.046 110.898 C 290.341 110.196,291.220 109.624,291.000 109.628 C 290.780 109.632,289.880 110.012,289.000 110.472 M155.600 111.680 C 153.499 113.132,150.601 116.039,149.985 117.312 C 149.565 118.180,149.570 118.182,150.189 117.400 C 151.727 115.455,154.273 113.080,156.061 111.922 C 157.127 111.231,158.000 110.606,158.000 110.533 C 158.000 110.182,157.244 110.544,155.600 111.680 M220.800 112.047 C 217.572 114.458,214.741 117.951,213.284 121.319 C 212.223 123.772,212.894 123.227,214.229 120.551 C 215.929 117.145,218.830 113.778,221.588 112.008 C 222.695 111.298,223.600 110.645,223.600 110.558 C 223.600 110.127,222.803 110.550,220.800 112.047 M244.000 110.558 C 244.000 110.645,244.886 111.285,245.969 111.980 C 248.339 113.501,250.682 115.974,252.188 118.543 C 252.798 119.584,253.383 120.351,253.487 120.246 C 253.773 119.960,251.306 116.431,249.443 114.464 C 247.378 112.282,244.000 109.859,244.000 110.558 M309.600 110.558 C 309.600 110.645,310.482 111.283,311.561 111.975 C 313.447 113.185,316.226 115.907,317.713 118.000 L 318.423 119.000 317.950 118.000 C 316.752 115.471,309.600 109.097,309.600 110.558 M366.495 114.800 C 366.495 115.570,366.632 116.740,366.800 117.400 L 367.105 118.600 367.105 117.200 C 367.105 116.430,366.968 115.260,366.800 114.600 L 366.495 113.400 366.495 114.800 M100.185 116.185 C 100.030 117.423,100.000 118.534,100.119 118.652 C 100.237 118.770,100.461 117.854,100.615 116.615 C 100.770 115.377,100.800 114.266,100.681 114.148 C 100.563 114.030,100.339 114.946,100.185 116.185 M148.614 119.435 C 148.241 120.004,148.027 120.561,148.139 120.672 C 148.250 120.783,148.629 120.318,148.981 119.637 C 149.759 118.133,149.544 118.015,148.614 119.435 M319.078 120.595 C 319.444 121.362,319.814 121.919,319.901 121.832 C 320.084 121.649,318.870 119.200,318.596 119.200 C 318.495 119.200,318.712 119.828,319.078 120.595 M367.290 121.400 C 367.284 122.500,367.416 124.390,367.583 125.600 L 367.887 127.800 367.914 125.400 C 367.929 124.080,367.797 122.190,367.620 121.200 L 367.300 119.400 367.290 121.400 M99.492 122.000 C 99.335 123.210,99.231 125.820,99.261 127.800 L 99.315 131.400 99.662 126.400 C 100.040 120.946,99.946 118.499,99.492 122.000 M320.012 122.800 C 320.012 123.130,320.187 123.670,320.400 124.000 C 320.745 124.533,320.788 124.533,320.788 124.000 C 320.788 123.670,320.613 123.130,320.400 122.800 C 320.055 122.267,320.012 122.267,320.012 122.800 M188.834 123.200 C 188.846 123.530,189.011 124.160,189.200 124.600 L 189.544 125.400 189.566 124.600 C 189.578 124.160,189.413 123.530,189.200 123.200 C 188.855 122.667,188.815 122.667,188.834 123.200 M254.412 123.200 C 254.412 123.530,254.587 124.070,254.800 124.400 C 255.145 124.933,255.188 124.933,255.188 124.400 C 255.188 124.070,255.013 123.530,254.800 123.200 C 254.455 122.667,254.412 122.667,254.412 123.200 M146.673 123.753 C 146.523 124.145,146.411 124.766,146.425 125.133 C 146.442 125.575,146.581 125.474,146.837 124.834 C 147.049 124.303,147.161 123.682,147.085 123.454 C 147.009 123.227,146.824 123.361,146.673 123.753 M212.273 124.153 C 212.123 124.545,212.011 125.166,212.025 125.533 C 212.042 125.975,212.181 125.874,212.437 125.234 C 212.649 124.703,212.761 124.082,212.685 123.854 C 212.609 123.627,212.424 123.761,212.273 124.153 M277.800 124.800 C 277.648 125.491,277.614 126.147,277.724 126.257 C 277.834 126.367,278.048 125.891,278.200 125.200 C 278.352 124.509,278.386 123.853,278.276 123.743 C 278.166 123.633,277.952 124.109,277.800 124.800 M321.000 130.200 C 321.000 132.934,321.122 134.862,321.272 134.485 C 321.421 134.108,321.544 132.180,321.544 130.200 C 321.544 128.220,321.421 126.292,321.272 125.915 C 321.122 125.538,321.000 127.466,321.000 130.200 M255.393 130.400 C 255.393 133.083,255.511 134.856,255.656 134.339 C 255.802 133.823,255.920 132.050,255.920 130.400 C 255.920 128.750,255.802 126.977,255.656 126.461 C 255.511 125.944,255.393 127.717,255.393 130.400 M189.758 130.188 C 189.764 132.601,189.894 134.131,190.045 133.588 C 190.406 132.294,190.398 128.072,190.033 126.800 C 189.876 126.250,189.752 127.774,189.758 130.188 M146.142 129.800 C 146.141 131.780,146.208 132.640,146.292 131.712 C 146.376 130.784,146.377 129.164,146.295 128.112 C 146.212 127.060,146.143 127.820,146.142 129.800 M211.734 129.600 C 211.734 131.250,211.805 131.925,211.891 131.100 C 211.978 130.275,211.978 128.925,211.891 128.100 C 211.805 127.275,211.734 127.950,211.734 129.600 M277.314 129.400 C 277.317 130.500,277.395 130.903,277.487 130.295 C 277.579 129.686,277.577 128.786,277.482 128.295 C 277.387 127.803,277.311 128.300,277.314 129.400 M368.154 136.400 C 368.154 139.150,368.218 140.275,368.296 138.900 C 368.374 137.525,368.374 135.275,368.296 133.900 C 368.218 132.525,368.154 133.650,368.154 136.400 M277.675 133.800 C 277.665 134.460,277.811 135.360,278.000 135.800 L 278.344 136.600 278.325 135.800 C 278.314 135.360,278.168 134.460,278.000 133.800 L 277.695 132.600 277.675 133.800 M212.028 134.229 C 211.999 135.081,213.191 138.942,213.415 138.718 C 213.484 138.650,213.206 137.425,212.798 135.997 C 212.391 134.569,212.044 133.773,212.028 134.229 M99.240 138.833 C 99.261 141.565,99.420 144.790,99.593 146.000 C 99.775 147.277,99.819 145.265,99.699 141.200 C 99.457 133.048,99.182 131.633,99.240 138.833 M146.412 135.000 C 146.412 135.440,146.587 136.070,146.800 136.400 C 147.121 136.897,147.188 136.862,147.188 136.200 C 147.188 135.760,147.013 135.130,146.800 134.800 C 146.479 134.303,146.412 134.338,146.412 135.000 M189.029 136.229 C 188.881 136.815,188.851 137.384,188.961 137.494 C 189.071 137.604,189.281 137.215,189.429 136.629 C 189.576 136.042,189.606 135.473,189.496 135.363 C 189.386 135.253,189.176 135.642,189.029 136.229 M320.200 136.800 C 320.050 137.273,320.017 137.750,320.127 137.860 C 320.237 137.970,320.450 137.673,320.600 137.200 C 320.750 136.727,320.783 136.250,320.673 136.140 C 320.563 136.030,320.350 136.327,320.200 136.800 M278.404 137.151 C 278.382 140.354,288.729 151.804,290.262 150.271 C 290.379 150.155,289.873 149.753,289.137 149.380 C 285.461 147.512,282.048 143.935,279.996 139.800 C 279.122 138.040,278.406 136.848,278.404 137.151 M147.207 137.544 C 147.161 141.233,157.359 151.274,161.056 151.181 C 161.465 151.171,160.981 150.842,159.979 150.450 C 155.227 148.590,150.949 144.590,148.592 139.800 C 147.834 138.260,147.210 137.245,147.207 137.544 M187.407 140.324 C 185.647 143.737,181.238 147.967,177.600 149.732 C 175.950 150.532,174.827 151.190,175.104 151.193 C 176.926 151.217,182.808 147.144,185.291 144.139 C 186.801 142.312,189.008 138.475,188.717 138.184 C 188.642 138.109,188.053 139.072,187.407 140.324 M318.665 140.504 C 317.497 142.891,314.178 146.541,311.663 148.206 C 309.696 149.508,309.494 149.882,311.250 148.974 C 314.135 147.482,320.783 139.450,319.880 138.547 C 319.785 138.452,319.238 139.332,318.665 140.504 M252.290 141.682 C 251.026 143.837,247.202 147.504,244.682 148.977 C 243.627 149.593,242.847 150.181,242.949 150.283 C 243.336 150.669,249.184 146.352,250.495 144.713 C 252.545 142.148,253.711 140.378,253.492 140.159 C 253.385 140.052,252.844 140.737,252.290 141.682 M214.400 140.958 C 214.400 142.383,222.303 150.231,223.017 149.516 C 223.110 149.423,222.147 148.615,220.876 147.719 C 219.606 146.823,217.774 145.035,216.805 143.745 C 214.562 140.761,214.400 140.573,214.400 140.958 M367.436 147.923 C 367.258 149.751,367.206 151.340,367.321 151.454 C 367.609 151.742,368.113 146.784,367.918 145.579 C 367.831 145.040,367.614 146.095,367.436 147.923 M100.095 150.800 C 100.095 151.570,100.232 152.740,100.400 153.400 L 100.705 154.600 100.705 153.200 C 100.705 152.430,100.568 151.260,100.400 150.600 L 100.095 149.400 100.095 150.800 M223.600 149.839 C 223.600 150.178,226.112 151.236,226.651 151.124 C 226.979 151.056,226.427 150.707,225.424 150.350 C 224.421 149.992,223.600 149.762,223.600 149.839 M240.800 150.800 C 240.267 151.145,240.267 151.188,240.800 151.188 C 241.130 151.188,241.670 151.013,242.000 150.800 C 242.533 150.455,242.533 150.412,242.000 150.412 C 241.670 150.412,241.130 150.587,240.800 150.800 M291.200 150.800 C 291.530 151.013,292.070 151.188,292.400 151.188 C 292.933 151.188,292.933 151.145,292.400 150.800 C 292.070 150.587,291.530 150.412,291.200 150.412 C 290.667 150.412,290.667 150.455,291.200 150.800 M162.400 151.600 C 162.730 151.813,163.360 151.978,163.800 151.966 L 164.600 151.944 163.800 151.600 C 162.604 151.086,161.605 151.086,162.400 151.600 M172.200 151.600 L 171.400 151.944 172.200 151.944 C 172.640 151.944,173.360 151.789,173.800 151.600 L 174.600 151.256 173.800 151.256 C 173.360 151.256,172.640 151.411,172.200 151.600 M228.000 151.600 C 228.330 151.813,228.960 151.978,229.400 151.966 L 230.200 151.944 229.400 151.600 C 228.204 151.086,227.205 151.086,228.000 151.600 M237.800 151.600 L 237.000 151.944 237.800 151.944 C 238.240 151.944,238.960 151.789,239.400 151.600 L 240.200 151.256 239.400 151.256 C 238.960 151.256,238.240 151.411,237.800 151.600 M293.800 151.600 C 294.240 151.789,294.960 151.944,295.400 151.944 L 296.200 151.944 295.400 151.600 C 294.960 151.411,294.240 151.256,293.800 151.256 L 293.000 151.256 293.800 151.600 M303.600 151.600 C 303.103 151.921,303.138 151.988,303.800 151.988 C 304.240 151.988,304.870 151.813,305.200 151.600 C 305.697 151.279,305.662 151.212,305.000 151.212 C 304.560 151.212,303.930 151.387,303.600 151.600 M166.500 152.291 C 167.325 152.378,168.675 152.378,169.500 152.291 C 170.325 152.205,169.650 152.134,168.000 152.134 C 166.350 152.134,165.675 152.205,166.500 152.291 M232.291 152.289 C 233.001 152.377,234.261 152.379,235.091 152.292 C 235.921 152.205,235.340 152.133,233.800 152.131 C 232.260 152.129,231.581 152.200,232.291 152.289 M297.891 152.289 C 298.601 152.377,299.861 152.379,300.691 152.292 C 301.521 152.205,300.940 152.133,299.400 152.131 C 297.860 152.129,297.181 152.200,297.891 152.289 M366.618 154.326 C 366.453 155.495,366.413 156.546,366.529 156.662 C 366.814 156.947,367.331 153.387,367.100 152.725 C 367.000 152.436,366.782 153.157,366.618 154.326 M100.880 156.400 C 100.880 156.950,101.024 157.850,101.200 158.400 L 101.520 159.400 101.520 158.400 C 101.520 157.850,101.376 156.950,101.200 156.400 L 100.880 155.400 100.880 156.400 M365.778 159.378 C 365.627 160.181,365.604 160.937,365.726 161.060 C 365.848 161.182,366.072 160.625,366.222 159.822 C 366.373 159.019,366.396 158.263,366.274 158.140 C 366.152 158.018,365.928 158.575,365.778 159.378 M101.668 161.000 C 101.662 161.660,101.811 162.560,102.000 163.000 C 102.470 164.094,102.470 162.267,102.000 160.800 C 101.688 159.825,101.679 159.830,101.668 161.000 M364.978 163.378 C 364.827 164.181,364.794 164.927,364.904 165.037 C 365.014 165.147,365.227 164.581,365.378 163.778 C 365.528 162.975,365.562 162.228,365.452 162.118 C 365.342 162.008,365.128 162.575,364.978 163.378 M102.456 164.600 C 102.456 165.040,102.611 165.760,102.800 166.200 L 103.144 167.000 103.144 166.200 C 103.144 165.760,102.989 165.040,102.800 164.600 L 102.456 163.800 102.456 164.600 M364.200 166.800 C 364.048 167.491,364.014 168.147,364.124 168.257 C 364.234 168.367,364.448 167.891,364.600 167.200 C 364.752 166.509,364.786 165.853,364.676 165.743 C 364.566 165.633,364.352 166.109,364.200 166.800 M103.234 168.000 C 103.246 168.330,103.411 168.960,103.600 169.400 L 103.944 170.200 103.966 169.400 C 103.978 168.960,103.813 168.330,103.600 168.000 C 103.255 167.467,103.215 167.467,103.234 168.000 M363.429 169.829 C 363.281 170.415,363.251 170.984,363.361 171.094 C 363.471 171.204,363.681 170.815,363.829 170.229 C 363.976 169.642,364.006 169.073,363.896 168.963 C 363.786 168.853,363.576 169.242,363.429 169.829 M104.034 171.000 C 104.022 171.440,104.187 172.070,104.400 172.400 C 104.914 173.195,104.914 172.196,104.400 171.000 L 104.056 170.200 104.034 171.000 M362.600 172.800 C 362.450 173.273,362.417 173.750,362.527 173.860 C 362.637 173.970,362.850 173.673,363.000 173.200 C 363.150 172.727,363.183 172.250,363.073 172.140 C 362.963 172.030,362.750 172.327,362.600 172.800 M104.834 173.800 C 104.822 174.240,104.987 174.870,105.200 175.200 C 105.714 175.995,105.714 174.996,105.200 173.800 L 104.856 173.000 104.834 173.800 M361.800 175.200 C 361.650 175.673,361.617 176.150,361.727 176.260 C 361.837 176.370,362.050 176.073,362.200 175.600 C 362.350 175.127,362.383 174.650,362.273 174.540 C 362.163 174.430,361.950 174.727,361.800 175.200 M105.612 176.400 C 105.612 176.730,105.787 177.270,106.000 177.600 C 106.345 178.133,106.388 178.133,106.388 177.600 C 106.388 177.270,106.213 176.730,106.000 176.400 C 105.655 175.867,105.612 175.867,105.612 176.400 M361.000 177.600 C 360.850 178.073,360.817 178.550,360.927 178.660 C 361.037 178.770,361.250 178.473,361.400 178.000 C 361.550 177.527,361.583 177.050,361.473 176.940 C 361.363 176.830,361.150 177.127,361.000 177.600 M106.650 179.200 C 107.025 180.705,107.934 182.684,107.938 182.000 C 107.939 181.670,107.594 180.680,107.171 179.800 C 106.748 178.920,106.514 178.650,106.650 179.200 M360.200 180.000 C 360.050 180.473,360.017 180.950,360.127 181.060 C 360.237 181.170,360.450 180.873,360.600 180.400 C 360.750 179.927,360.783 179.450,360.673 179.340 C 360.563 179.230,360.350 179.527,360.200 180.000 M109.600 187.504 C 109.600 187.965,109.285 188.424,108.900 188.524 C 108.515 188.625,108.791 188.728,109.514 188.754 C 110.753 188.797,110.801 188.749,110.360 187.900 C 109.690 186.612,109.600 186.566,109.600 187.504 M356.618 189.018 C 356.272 189.846,356.071 190.605,356.171 190.705 C 356.271 190.805,356.636 190.209,356.982 189.382 C 357.328 188.554,357.529 187.795,357.429 187.695 C 357.329 187.595,356.964 188.191,356.618 189.018 M104.000 189.200 C 102.618 189.643,105.260 189.643,107.000 189.200 C 108.142 188.910,108.122 188.894,106.600 188.887 C 105.720 188.883,104.550 189.024,104.000 189.200 M99.200 190.095 C 98.430 190.322,95.687 191.102,93.105 191.828 C 68.068 198.863,45.565 220.076,36.487 245.200 C 34.407 250.955,32.576 257.966,32.912 258.889 C 33.014 259.170,33.232 258.680,33.396 257.800 C 33.560 256.920,33.959 255.210,34.282 254.000 C 34.605 252.790,35.010 251.260,35.183 250.600 C 35.355 249.940,35.893 248.320,36.379 247.000 C 36.865 245.680,37.405 244.150,37.578 243.600 C 44.338 222.191,69.478 198.885,92.800 192.407 C 93.790 192.132,95.050 191.761,95.600 191.583 C 96.150 191.405,97.590 191.042,98.800 190.778 C 100.010 190.513,101.450 190.154,102.000 189.980 C 103.624 189.466,100.961 189.575,99.200 190.095 M353.886 194.886 C 352.864 196.907,352.100 198.634,352.189 198.722 C 352.278 198.811,353.183 197.226,354.200 195.200 C 355.217 193.174,355.981 191.448,355.897 191.363 C 355.812 191.279,354.907 192.864,353.886 194.886 M350.711 200.879 C 350.171 201.826,349.323 203.275,348.826 204.100 C 348.328 204.925,348.015 205.600,348.131 205.600 C 348.449 205.600,352.065 199.532,351.866 199.332 C 351.770 199.237,351.250 199.933,350.711 200.879 M345.803 208.900 C 339.781 218.024,332.530 226.422,323.900 234.270 L 318.400 239.271 318.472 241.135 L 318.544 243.000 318.693 241.131 C 318.829 239.419,319.033 239.100,321.121 237.337 C 329.514 230.251,340.030 218.440,345.639 209.800 C 347.899 206.319,348.087 206.000,347.882 206.000 C 347.792 206.000,346.856 207.305,345.803 208.900 M317.840 252.000 C 317.666 255.190,317.592 258.430,317.674 259.200 C 317.757 259.970,317.973 257.810,318.155 254.400 C 318.336 250.990,318.411 247.750,318.320 247.200 C 318.230 246.650,318.014 248.810,317.840 252.000 M75.107 258.290 C 75.826 258.379,76.906 258.377,77.507 258.286 C 78.108 258.195,77.520 258.122,76.200 258.124 C 74.880 258.126,74.388 258.201,75.107 258.290 M117.507 258.290 C 118.226 258.379,119.306 258.377,119.907 258.286 C 120.508 258.195,119.920 258.122,118.600 258.124 C 117.280 258.126,116.788 258.201,117.507 258.290 M159.907 258.290 C 160.626 258.379,161.706 258.377,162.307 258.286 C 162.908 258.195,162.320 258.122,161.000 258.124 C 159.680 258.126,159.188 258.201,159.907 258.290 M70.113 259.394 C 61.030 263.523,58.807 275.544,65.828 282.564 C 67.684 284.421,71.585 286.551,72.674 286.303 C 73.157 286.193,72.866 285.984,71.800 285.677 C 59.660 282.181,58.877 265.282,70.600 259.750 C 72.140 259.023,73.130 258.433,72.800 258.437 C 72.470 258.442,71.261 258.873,70.113 259.394 M78.800 258.551 C 78.800 258.634,79.885 259.108,81.211 259.604 C 92.897 263.974,92.737 280.569,80.963 285.410 C 79.663 285.944,78.960 286.384,79.400 286.387 C 87.976 286.446,93.482 272.091,87.873 264.295 C 85.550 261.066,78.800 256.793,78.800 258.551 M112.530 259.387 C 103.233 263.614,101.231 276.118,108.766 282.893 C 110.958 284.865,113.871 286.416,115.296 286.372 C 115.855 286.355,115.437 286.083,114.200 285.660 C 101.234 281.230,101.611 263.831,114.778 258.980 C 115.651 258.659,115.891 258.454,115.400 258.451 C 114.960 258.448,113.668 258.870,112.530 259.387 M122.438 258.986 C 127.897 260.995,130.857 264.264,132.234 269.800 C 132.663 271.521,132.737 271.621,132.766 270.519 C 132.828 268.182,131.133 264.695,128.804 262.366 C 126.963 260.524,123.072 258.372,121.688 258.428 C 121.310 258.444,121.647 258.695,122.438 258.986 M155.159 259.323 C 151.303 261.160,147.133 266.067,147.227 268.656 C 147.248 269.238,147.346 269.182,147.676 268.400 C 149.698 263.604,152.212 260.959,156.100 259.535 C 157.365 259.072,158.400 258.627,158.400 258.546 C 158.400 258.155,156.811 258.536,155.159 259.323 M164.822 258.980 C 170.078 260.917,173.246 264.218,174.629 269.200 C 175.045 270.699,175.134 270.809,175.164 269.857 C 175.297 265.630,168.156 258.262,164.089 258.428 C 163.710 258.444,164.040 258.692,164.822 258.980 M32.296 260.750 C 32.133 261.493,32.018 262.663,32.040 263.350 C 32.078 264.538,32.099 264.521,32.456 263.000 C 32.662 262.120,32.777 260.950,32.711 260.400 C 32.605 259.513,32.558 259.552,32.296 260.750 M317.040 269.200 C 316.866 272.390,316.792 275.630,316.874 276.400 C 316.957 277.170,317.173 275.010,317.355 271.600 C 317.536 268.190,317.611 264.950,317.520 264.400 C 317.430 263.850,317.214 266.010,317.040 269.200 M31.449 269.500 C 31.318 272.085,31.360 276.540,31.544 279.400 C 31.863 284.381,31.880 284.184,31.939 274.700 C 32.005 263.970,31.827 262.076,31.449 269.500 M204.843 267.900 C 204.867 268.725,205.028 270.480,205.200 271.800 C 205.490 274.018,205.509 273.918,205.457 270.475 L 205.400 266.751 207.400 266.961 C 208.809 267.109,209.104 267.069,208.400 266.826 C 205.866 265.949,204.796 266.272,204.843 267.900 M210.800 267.600 C 211.350 267.776,212.340 267.917,213.000 267.913 L 214.200 267.905 213.000 267.600 C 212.340 267.432,211.350 267.291,210.800 267.287 L 209.800 267.280 210.800 267.600 M216.200 268.400 C 216.860 268.568,218.210 268.706,219.200 268.707 L 221.000 268.708 219.400 268.377 C 218.520 268.195,217.170 268.057,216.400 268.070 L 215.000 268.095 216.200 268.400 M224.400 269.293 C 225.610 269.463,229.951 269.562,234.047 269.513 L 241.494 269.424 243.647 271.075 C 245.935 272.830,253.040 278.447,266.573 289.200 C 271.142 292.830,280.037 299.892,286.340 304.894 C 292.643 309.896,301.456 316.895,305.925 320.449 C 315.397 327.981,314.846 327.964,315.014 320.735 L 315.137 315.400 314.723 320.800 C 314.496 323.770,314.257 326.258,314.193 326.329 C 314.128 326.400,310.047 323.250,305.124 319.329 C 300.200 315.408,295.475 311.660,294.623 311.000 C 293.772 310.340,292.521 309.350,291.843 308.800 C 290.321 307.565,291.216 308.277,280.000 299.375 C 274.830 295.272,269.880 291.351,269.000 290.663 C 268.120 289.974,267.130 289.190,266.800 288.921 C 266.470 288.651,261.520 284.716,255.800 280.177 C 250.080 275.638,245.009 271.594,244.531 271.191 C 241.923 268.993,242.154 269.033,231.842 269.007 C 225.761 268.992,223.013 269.098,224.400 269.293 M146.758 271.000 C 145.858 277.487,152.321 286.595,157.656 286.358 C 158.419 286.324,158.330 286.228,157.189 285.858 C 153.678 284.719,149.951 281.601,148.681 278.741 C 147.590 276.284,147.480 275.819,147.229 272.600 C 147.021 269.927,146.943 269.664,146.758 271.000 M175.293 272.400 C 175.293 273.170,175.375 273.485,175.476 273.100 C 175.576 272.715,175.576 272.085,175.476 271.700 C 175.375 271.315,175.293 271.630,175.293 272.400 M132.257 274.988 C 131.457 279.770,127.445 284.288,122.656 285.799 C 121.455 286.177,121.259 286.332,121.944 286.360 C 126.184 286.538,133.168 278.673,132.715 274.231 C 132.609 273.195,132.537 273.315,132.257 274.988 M174.470 276.200 C 173.373 280.469,169.856 284.138,165.400 285.660 C 164.216 286.065,163.760 286.355,164.281 286.372 C 168.353 286.502,175.690 278.884,175.122 275.116 C 175.023 274.462,174.837 274.772,174.470 276.200 M205.693 275.600 C 205.693 276.370,205.775 276.685,205.876 276.300 C 205.976 275.915,205.976 275.285,205.876 274.900 C 205.775 274.515,205.693 274.830,205.693 275.600 M205.050 283.122 C 204.864 285.389,204.805 287.338,204.920 287.453 C 205.235 287.769,205.683 282.857,205.527 280.800 C 205.432 279.543,205.288 280.243,205.050 283.122 M316.245 286.800 C 316.064 290.210,315.989 293.450,316.080 294.000 C 316.298 295.329,316.919 283.797,316.726 282.000 C 316.643 281.230,316.427 283.390,316.245 286.800 M32.055 286.000 C 32.013 287.477,33.068 294.001,33.403 294.337 C 33.726 294.660,33.627 292.993,33.201 290.931 C 32.982 289.869,32.643 288.010,32.449 286.800 C 32.170 285.067,32.087 284.897,32.055 286.000 M75.107 286.690 C 75.826 286.779,76.906 286.777,77.507 286.686 C 78.108 286.595,77.520 286.522,76.200 286.524 C 74.880 286.526,74.388 286.601,75.107 286.690 M117.507 286.690 C 118.226 286.779,119.306 286.777,119.907 286.686 C 120.508 286.595,119.920 286.522,118.600 286.524 C 117.280 286.526,116.788 286.601,117.507 286.690 M159.907 286.690 C 160.626 286.779,161.706 286.777,162.307 286.686 C 162.908 286.595,162.320 286.522,161.000 286.524 C 159.680 286.526,159.188 286.601,159.907 286.690 M204.258 289.600 C 203.976 291.360,203.658 292.860,202.751 296.700 C 202.296 298.629,200.236 305.138,199.619 306.600 C 193.671 320.691,187.770 329.305,177.175 339.367 L 173.419 342.933 173.134 345.767 C 172.978 347.325,172.866 350.670,172.887 353.200 L 172.924 357.800 173.222 354.400 C 173.386 352.530,173.538 349.347,173.560 347.326 L 173.600 343.652 179.517 337.726 C 188.074 329.156,191.739 324.080,196.795 313.800 C 201.225 304.792,205.376 291.563,204.715 288.563 C 204.619 288.127,204.423 288.572,204.258 289.600 M33.606 295.357 C 33.600 296.079,34.662 299.981,35.795 303.400 C 39.003 313.078,45.254 324.198,51.649 331.600 C 53.264 333.470,54.769 335.230,54.993 335.512 C 57.808 339.056,69.940 348.394,76.400 351.989 C 82.269 355.256,95.554 360.377,96.888 359.887 C 97.170 359.783,96.860 359.565,96.200 359.403 C 77.739 354.851,60.385 342.789,47.547 325.588 C 43.502 320.167,38.585 310.325,36.165 302.800 C 35.634 301.150,35.020 299.247,34.800 298.572 C 34.580 297.896,34.397 296.996,34.394 296.572 C 34.391 296.147,34.213 295.530,34.000 295.200 C 33.675 294.697,33.611 294.722,33.606 295.357 M315.445 304.000 C 315.264 307.410,315.189 310.650,315.280 311.200 C 315.498 312.529,316.119 300.997,315.926 299.200 C 315.843 298.430,315.627 300.590,315.445 304.000 M172.302 363.200 C 172.138 365.730,172.028 369.330,172.057 371.200 L 172.110 374.600 172.457 370.800 C 172.648 368.710,172.759 365.110,172.702 362.800 L 172.600 358.600 172.302 363.200 M97.600 360.160 C 97.600 360.461,103.609 361.657,104.305 361.494 C 104.687 361.405,104.280 361.205,103.400 361.049 C 102.520 360.894,101.149 360.595,100.354 360.384 C 98.851 359.985,97.600 359.883,97.600 360.160 M106.800 362.020 C 107.790 362.197,109.770 362.330,111.200 362.317 L 113.800 362.293 111.800 361.982 C 110.700 361.810,108.720 361.677,107.400 361.685 L 105.000 361.700 106.800 362.020 M118.925 362.699 L 123.651 362.826 130.053 367.913 C 133.574 370.711,136.946 373.360,137.546 373.800 C 138.147 374.240,140.879 376.386,143.619 378.568 C 146.359 380.751,150.130 383.746,152.000 385.224 C 153.870 386.702,158.722 390.541,162.783 393.756 C 171.507 400.662,171.224 400.569,171.122 396.500 L 171.043 393.400 170.903 396.100 C 170.721 399.621,170.992 399.717,162.923 393.283 C 159.141 390.267,151.608 384.290,146.184 380.000 C 140.761 375.710,133.542 369.995,130.142 367.300 L 123.962 362.400 119.081 362.486 L 114.200 362.572 118.925 362.699 M171.500 380.562 C 171.335 382.961,171.225 386.561,171.256 388.562 L 171.311 392.200 171.662 388.000 C 171.855 385.690,171.965 382.090,171.907 380.000 L 171.800 376.200 171.500 380.562 " stroke="none" fill="#ea9ed4" fill-rule="evenodd"></path></g></svg>